<svg xmlns="http://www.w3.org/2000/svg" xmlns:xlink="http://www.w3.org/1999/xlink" viewBox="0 0 120 120" width="120px" height="120px">
<g id="surface113120727">
<path style=" stroke:none;fill-rule:nonzero;fill:rgb(73.333335%,5.490196%,5.490196%);fill-opacity:1;" d="M 59.9375 9.945312 C 57.730469 9.980469 55.96875 11.792969 56 14 L 56 16 L 34 16 C 32.929688 15.984375 31.898438 16.402344 31.136719 17.152344 C 30.375 17.902344 29.945312 18.929688 29.945312 20 L 24 20 C 22.558594 19.980469 21.214844 20.738281 20.488281 21.984375 C 19.761719 23.230469 19.761719 24.769531 20.488281 26.015625 C 21.214844 27.261719 22.558594 28.019531 24 28 L 96 28 C 97.441406 28.019531 98.785156 27.261719 99.511719 26.015625 C 100.238281 24.769531 100.238281 23.230469 99.511719 21.984375 C 98.785156 20.738281 97.441406 19.980469 96 20 L 90.054688 20 C 90.054688 18.929688 89.625 17.902344 88.863281 17.152344 C 88.101562 16.402344 87.070312 15.984375 86 16 L 64 16 L 64 14 C 64.015625 12.917969 63.589844 11.878906 62.824219 11.113281 C 62.0625 10.351562 61.019531 9.929688 59.9375 9.945312 Z M 24 36 L 31.171875 96.9375 C 31.644531 100.964844 35.054688 104 39.109375 104 L 80.890625 104 C 84.945312 104 88.351562 100.964844 88.828125 96.9375 L 96 36 Z M 24 36 "/>
</g>
</svg>
